<svg id="Layer_1" data-name="Layer 1" xmlns="http://www.w3.org/2000/svg" viewBox="0 0 805.91 774.65"><defs><style>.cls-1{fill:#fff;}</style></defs><path class="cls-1" d="M278.46,712.71v-93H267.69c-48.09,0-96.18.09-144.27,0A123.31,123.31,0,0,1,.05,495.83Q-.06,325.43.05,155c0-69.23,54.81-124,124.13-124Q309.59,30.93,495,31c16,0,29.35,11.11,31.51,25.82,2.32,15.79-7.12,30.85-22.41,35-4.27,1.15-8.93,1.06-13.42,1.06q-179.6.07-359.2,0c-44.41,0-69.55,25.16-69.56,69.58q0,163.14,0,326.29c0,43.66,25.4,69,69.19,69H650.27v-186c-9.51,0-19,0-28.59,0-37.45-.1-63.86-26.48-63.89-64q-.06-122,0-244c0-37.39,26.51-63.74,64-63.79q60-.08,120.06,0c37,.06,63.66,26.44,63.69,63.16q.12,123,0,245.93c0,35.6-26.85,62.44-62.28,62.65-9.91.06-19.83,0-30.18,0V548.16c15.51-9,24.5-21.93,28.5-38.34,1.58-6.5,1.91-13.41,2-20.14.26-19.36-.21-38.74.22-58.09.34-15.66,13.86-28.34,29.6-28.73,16-.4,31.44,11.19,31.71,26.36.52,28.66,2.13,57.74-1.81,85.94-6.77,48.49-36.11,80.82-82.05,97.38-7.37,2.66-8.86,6-8.8,13.05.33,38.4.18,76.81.15,115.22,0,19.86-12.52,33.63-30.53,33.79-18.55.16-31.33-13.63-31.35-33.94q-.06-54.7,0-109.41v-11H527.19v92.47h42.15c6.14,0,12.27-.06,18.4,0,18.61.19,32.11,13.49,31.93,31.41-.17,17.37-13.66,30.43-31.92,30.44q-171.85.09-343.71,0c-9,0-18.07.11-27.11,0-17.92-.28-31.14-13.75-31-31.39.15-17.13,13.33-30.28,30.89-30.44C237.13,712.57,257.4,712.71,278.46,712.71Zm464.8-526.14H620.46V309.36h122.8ZM464.19,712.5V620.39H341.61V712.5ZM620.33,62.41v60.84H743.22V62.41Z"/></svg>